<?xml version="1.0" encoding="UTF-8"?>
<svg version="1.1" xmlns="http://www.w3.org/2000/svg" width="123" height="123">
<path d="M0 0 C1.66675781 -0.00193359 1.66675781 -0.00193359 3.3671875 -0.00390625 C4.53765625 -0.00003906 5.708125 0.00382812 6.9140625 0.0078125 C8.07679687 0.00394531 9.23953125 0.00007813 10.4375 -0.00390625 C12.108125 -0.00197266 12.108125 -0.00197266 13.8125 0 C15.35043213 0.00169189 15.35043213 0.00169189 16.91943359 0.00341797 C21.09090827 0.20946471 23.33929025 1.63299043 26.5390625 4.1328125 C29.4075038 6.23513594 29.4075038 6.23513594 32.5390625 7.1328125 C33.20572917 8.46614583 33.87239583 9.79947917 34.5390625 11.1328125 C35.5290625 11.4628125 36.5190625 11.7928125 37.5390625 12.1328125 C38.20572917 14.1328125 38.87239583 16.1328125 39.5390625 18.1328125 C40.5264079 19.80700688 41.52718355 21.47333102 42.5390625 23.1328125 C44.43207739 26.33616289 44.78411961 28.65104763 44.76611328 32.36035156 C44.76596222 33.40112854 44.76581116 34.44190552 44.76565552 35.51422119 C44.75533295 36.63101257 44.74501038 37.74780396 44.734375 38.8984375 C44.7315451 40.04697205 44.72871521 41.19550659 44.72579956 42.37884521 C44.71460513 46.04694031 44.68950154 49.7147912 44.6640625 53.3828125 C44.65403176 55.86978814 44.64490608 58.35676761 44.63671875 60.84375 C44.61466818 66.94018748 44.58119775 73.03648254 44.5390625 79.1328125 C43.8790625 79.1328125 43.2190625 79.1328125 42.5390625 79.1328125 C42.8690625 80.1228125 43.1990625 81.1128125 43.5390625 82.1328125 C42.62087167 86.41770305 41.86273432 89.24266309 38.5390625 92.1328125 C38.0440625 93.6178125 38.0440625 93.6178125 37.5390625 95.1328125 C36.8790625 96.1228125 36.2190625 97.1128125 35.5390625 98.1328125 C35.0440625 99.6178125 35.0440625 99.6178125 34.5390625 101.1328125 C33.641875 101.535 33.641875 101.535 32.7265625 101.9453125 C30.23003705 103.07039751 30.23003705 103.07039751 28.6015625 106.1953125 C26.5390625 109.1328125 26.5390625 109.1328125 23.7890625 110.0078125 C23.0465625 110.0490625 22.3040625 110.0903125 21.5390625 110.1328125 C21.5390625 110.7928125 21.5390625 111.4528125 21.5390625 112.1328125 C20.5903125 112.4215625 19.6415625 112.7103125 18.6640625 113.0078125 C15.48694672 113.90106359 15.48694672 113.90106359 13.5390625 116.1328125 C11.87297263 116.17665697 10.20525696 116.1724838 8.5390625 116.1328125 C7.92353012 116.29196136 7.30799774 116.45111023 6.67381287 116.61508179 C4.3142663 117.18733124 2.18475931 117.29965615 -0.24194336 117.35400391 C-1.18649887 117.37717682 -2.13105438 117.40034973 -3.10423279 117.42422485 C-4.11784378 117.4440744 -5.13145477 117.46392395 -6.17578125 117.484375 C-7.74761925 117.51910416 -7.74761925 117.51910416 -9.35121155 117.55453491 C-11.56604291 117.60212182 -13.78092576 117.64736217 -15.99584961 117.69042969 C-19.38220443 117.75749103 -22.76819641 117.83529881 -26.15429688 117.9140625 C-28.30727818 117.9589845 -30.46027274 118.00327631 -32.61328125 118.046875 C-34.13066139 118.08272202 -34.13066139 118.08272202 -35.67869568 118.11929321 C-37.10025719 118.1445961 -37.10025719 118.1445961 -38.55053711 118.17041016 C-39.79485756 118.19586411 -39.79485756 118.19586411 -41.0643158 118.22183228 C-43.62161563 118.12684429 -45.96875261 117.69832989 -48.4609375 117.1328125 C-48.4609375 116.4728125 -48.4609375 115.8128125 -48.4609375 115.1328125 C-50.4409375 115.1328125 -52.4209375 115.1328125 -54.4609375 115.1328125 C-54.4609375 114.4728125 -54.4609375 113.8128125 -54.4609375 113.1328125 C-55.2446875 113.0503125 -56.0284375 112.9678125 -56.8359375 112.8828125 C-58.1353125 112.5115625 -58.1353125 112.5115625 -59.4609375 112.1328125 C-60.4609375 110.3203125 -60.4609375 110.3203125 -61.4609375 108.1328125 C-63.09028991 106.75412969 -64.75843357 105.42007157 -66.4609375 104.1328125 C-70.5992592 100.39325564 -72.20991212 95.86003788 -72.71289062 90.39550781 C-72.79188885 87.34394824 -72.77189919 84.30970711 -72.7109375 81.2578125 C-72.70578125 80.23300781 -72.700625 79.20820312 -72.6953125 78.15234375 C-72.52016161 60.92187524 -72.52016161 60.92187524 -69.4609375 55.1328125 C-69.2959375 54.2871875 -69.1309375 53.4415625 -68.9609375 52.5703125 C-68.33306914 49.50945426 -66.87650318 47.63149131 -64.8984375 45.2578125 C-63.27998978 42.86532457 -62.99165405 40.93802857 -62.4609375 38.1328125 C-61.4709375 37.6378125 -61.4709375 37.6378125 -60.4609375 37.1328125 C-60.1309375 36.4728125 -59.8009375 35.8128125 -59.4609375 35.1328125 C-57.4609375 32.1328125 -57.4609375 32.1328125 -55.4609375 30.1328125 C-55.1721875 29.4728125 -54.8834375 28.8128125 -54.5859375 28.1328125 C-53.1972476 25.66403046 -51.96475137 25.34678286 -49.4609375 24.1328125 C-47.80423338 22.22944441 -47.80423338 22.22944441 -46.4609375 20.1328125 C-44.4609375 17.1328125 -44.4609375 17.1328125 -41.4609375 16.1328125 C-40.8421875 15.4728125 -40.2234375 14.8128125 -39.5859375 14.1328125 C-37.17341815 11.86220606 -35.70016575 11.49272675 -32.4609375 11.1328125 C-32.4609375 10.4728125 -32.4609375 9.8128125 -32.4609375 9.1328125 C-21.24930428 3.72649114 -21.24930428 3.72649114 -15.4609375 3.1328125 C-14.8009375 2.8028125 -14.1409375 2.4728125 -13.4609375 2.1328125 C-12.2853125 1.9678125 -11.1096875 1.8028125 -9.8984375 1.6328125 C-6.03691472 1.07113646 -4.10620964 0.00452724 0 0 Z M-68.4609375 52.1328125 C-67.4609375 54.1328125 -67.4609375 54.1328125 -67.4609375 54.1328125 Z " fill="#6F8EDA" transform="translate(72.4609375,-0.1328125)"/>
<path d="M0 0 C1.66675781 -0.00193359 1.66675781 -0.00193359 3.3671875 -0.00390625 C4.53765625 -0.00003906 5.708125 0.00382812 6.9140625 0.0078125 C8.07679687 0.00394531 9.23953125 0.00007813 10.4375 -0.00390625 C12.108125 -0.00197266 12.108125 -0.00197266 13.8125 0 C15.35043213 0.00169189 15.35043213 0.00169189 16.91943359 0.00341797 C21.09090827 0.20946471 23.33929025 1.63299043 26.5390625 4.1328125 C29.4075038 6.23513594 29.4075038 6.23513594 32.5390625 7.1328125 C33.20572917 8.46614583 33.87239583 9.79947917 34.5390625 11.1328125 C35.5290625 11.4628125 36.5190625 11.7928125 37.5390625 12.1328125 C38.31678655 14.46598466 38.96321818 16.74717173 39.5390625 19.1328125 C38.58016113 19.46732422 37.62125977 19.80183594 36.63330078 20.14648438 C25.22455057 24.14182873 13.87727927 28.29606287 2.53692627 32.48101807 C-13.71986507 38.47695101 -29.98471967 44.45190342 -46.28265381 50.33520508 C-47.97747745 50.94761524 -49.67169833 51.5616962 -51.36529541 52.17749023 C-53.69499271 53.02406234 -56.02681027 53.86449171 -58.359375 54.703125 C-59.04138977 54.95220612 -59.72340454 55.20128723 -60.42608643 55.45791626 C-63.25584513 56.46816614 -65.42906231 57.1328125 -68.4609375 57.1328125 C-69.61931376 53.07849558 -69.29785007 50.91469131 -67.4609375 47.1328125 C-66.8009375 47.1328125 -66.1409375 47.1328125 -65.4609375 47.1328125 C-64.9865625 46.0190625 -64.5121875 44.9053125 -64.0234375 43.7578125 C-61.85600339 38.72936536 -59.36839434 34.04026934 -55.4609375 30.1328125 C-55.1721875 29.4728125 -54.8834375 28.8128125 -54.5859375 28.1328125 C-53.1972476 25.66403046 -51.96475137 25.34678286 -49.4609375 24.1328125 C-47.80423338 22.22944441 -47.80423338 22.22944441 -46.4609375 20.1328125 C-44.4609375 17.1328125 -44.4609375 17.1328125 -41.4609375 16.1328125 C-40.8421875 15.4728125 -40.2234375 14.8128125 -39.5859375 14.1328125 C-37.17341815 11.86220606 -35.70016575 11.49272675 -32.4609375 11.1328125 C-32.4609375 10.4728125 -32.4609375 9.8128125 -32.4609375 9.1328125 C-21.24930428 3.72649114 -21.24930428 3.72649114 -15.4609375 3.1328125 C-14.8009375 2.8028125 -14.1409375 2.4728125 -13.4609375 2.1328125 C-12.2853125 1.9678125 -11.1096875 1.8028125 -9.8984375 1.6328125 C-6.03691472 1.07113646 -4.10620964 0.00452724 0 0 Z M-68.4609375 52.1328125 C-67.4609375 54.1328125 -67.4609375 54.1328125 -67.4609375 54.1328125 Z " fill="#6382D0" transform="translate(72.4609375,-0.1328125)"/>
<path d="M0 0 C0.33 8.58 0.66 17.16 1 26 C0.34 26 -0.32 26 -1 26 C-0.505 27.485 -0.505 27.485 0 29 C-0.91819083 33.28489055 -1.67632818 36.10985059 -5 39 C-5.33 39.99 -5.66 40.98 -6 42 C-6.66 42.99 -7.32 43.98 -8 45 C-8.33 45.99 -8.66 46.98 -9 48 C-9.598125 48.268125 -10.19625 48.53625 -10.8125 48.8125 C-13.30902545 49.93758501 -13.30902545 49.93758501 -14.9375 53.0625 C-17 56 -17 56 -19.75 56.875 C-20.4925 56.91625 -21.235 56.9575 -22 57 C-22 57.66 -22 58.32 -22 59 C-22.94875 59.28875 -23.8975 59.5775 -24.875 59.875 C-28.05211578 60.76825109 -28.05211578 60.76825109 -30 63 C-31.66614608 63.04165365 -33.33385392 63.04165365 -35 63 C-35.99 63.495 -35.99 63.495 -37 64 C-38.42073947 64.06118185 -39.84452699 64.05828359 -41.26611328 64.02172852 C-42.14687531 64.00163223 -43.02763733 63.98153595 -43.93508911 63.96083069 C-44.88721283 63.93379562 -45.83933655 63.90676056 -46.8203125 63.87890625 C-48.28100662 63.84348976 -48.28100662 63.84348976 -49.77120972 63.80735779 C-52.88928472 63.73062849 -56.00711712 63.646644 -59.125 63.5625 C-61.23566511 63.5092886 -63.34634215 63.45654814 -65.45703125 63.40429688 C-70.63817177 63.27500087 -75.81913132 63.13974366 -81 63 C-77.45161928 59.40227911 -73.81171663 56.14411988 -69.8125 53.0625 C-68.90999512 52.36024292 -68.90999512 52.36024292 -67.98925781 51.64379883 C-66.68295376 50.62791356 -65.37545555 49.61356235 -64.06689453 48.60058594 C-61.94669024 46.95871737 -59.83031516 45.31202378 -57.71484375 43.6640625 C-52.36943998 39.50095708 -47.01860443 35.34485394 -41.66796875 31.18847656 C-33.93484239 25.18068218 -26.20276147 19.17171022 -18.5 13.125 C-17.93603516 12.68285156 -17.37207031 12.24070312 -16.79101562 11.78515625 C-12.44348098 8.36886867 -8.15335999 4.88497787 -3.890625 1.36328125 C-2 0 -2 0 0 0 Z " fill="#7795DF" transform="translate(116,53)"/>
<path d="M0 0 C0.495 1.485 0.495 1.485 1 3 C-1.85081614 8.20292554 -5.86220516 12.17255727 -10.0625 16.3125 C-10.73007324 16.97475586 -11.39764648 17.63701172 -12.08544922 18.31933594 C-16.61237749 22.76048169 -21.28301384 26.90343399 -26.265625 30.83203125 C-29.36953221 33.29298625 -32.36910449 35.85878393 -35.375 38.4375 C-40.4118799 42.7387154 -45.57774412 46.83598226 -50.86279297 50.82788086 C-53.03298145 52.46897943 -55.0729337 54.0729337 -57 56 C-59.76283024 56.17267689 -62.34961939 55.78887132 -65 55 C-66.1875 53.1875 -66.1875 53.1875 -67 51 C-68.62935241 49.62131719 -70.29749607 48.28725907 -72 47 C-76.21017542 43.20237945 -77.83611371 38.59486628 -78.1875 33.03125 C-78.1875 30.34733123 -78.13303365 27.68038163 -78 25 C-66.2250337 20.1583679 -54.35725038 15.57151644 -42.43252563 11.1133728 C-40.91325717 10.54493055 -39.39466216 9.97468457 -37.87680054 9.40249634 C-10.90834435 -0.75229961 -10.90834435 -0.75229961 0 0 Z " fill="#ECF1FD" transform="translate(78,57)"/>
<path d="M0 0 C0.33 0 0.66 0 1 0 C1.77447678 5.33528446 2.46339436 10.73049099 1 16 C-2.2027527 19.86934189 -5.88429455 22.21774782 -10.14013672 24.81689453 C-13.16470747 26.7408995 -15.90321328 28.99863369 -18.6875 31.25 C-19.86185402 32.17759102 -21.03767898 33.10332234 -22.21484375 34.02734375 C-22.82440918 34.50671387 -23.43397461 34.98608398 -24.06201172 35.47998047 C-27.61655652 38.26791143 -31.18332032 41.04012123 -34.75 43.8125 C-35.50466553 44.399104 -36.25933105 44.98570801 -37.03686523 45.59008789 C-40.13492824 47.99765236 -43.23349 50.40457452 -46.33203125 52.81152344 C-48.63825851 54.60321007 -50.94423316 56.39522088 -53.25 58.1875 C-53.99233887 58.7645166 -54.73467773 59.3415332 -55.49951172 59.93603516 C-60.87629196 64.11850299 -66.23854657 68.31909955 -71.58691406 72.5378418 C-73.0554485 73.69506675 -74.52756205 74.84774592 -76 76 C-77.08667969 76.92232422 -77.08667969 76.92232422 -78.1953125 77.86328125 C-78.79085937 78.23839844 -79.38640625 78.61351563 -80 79 C-80.99 78.67 -81.98 78.34 -83 78 C-82.34515625 77.47792969 -81.6903125 76.95585938 -81.015625 76.41796875 C-74.71917581 71.33990026 -68.70698924 66.05866929 -62.77734375 60.5625 C-59.89037879 57.89885863 -56.95076666 55.30851652 -53.984375 52.734375 C-50.80819733 49.95834569 -47.6817017 47.12763659 -44.55078125 44.30078125 C-42.92672663 42.8358989 -41.29946215 41.37456169 -39.66796875 39.91796875 C-34.49547982 35.29446703 -29.3899201 30.60238252 -24.3125 25.875 C-23.69479736 25.30112549 -23.07709473 24.72725098 -22.44067383 24.13598633 C-16.3118609 18.41330449 -10.37119698 12.67820799 -5.125 6.125 C-1.02777778 1.02777778 -1.02777778 1.02777778 0 0 Z " fill="#EEF2FD" transform="translate(115,37)"/>
<path d="M0 0 C1.875 1.1875 1.875 1.1875 3 3 C2.72278516 5.0085475 2.39298289 7.0108606 2 9 C0.82050781 9.12375 -0.35898438 9.2475 -1.57421875 9.375 C-34.03117058 13.1658089 -64.87599569 25.52214247 -95.57324219 36.1340332 C-100.37118073 37.79004562 -105.18166497 39.40435395 -110 41 C-110 39.68 -110 38.36 -110 37 C-109.05145142 36.67914429 -109.05145142 36.67914429 -108.08374023 36.35180664 C-91.15532477 30.60773182 -74.31233859 24.63738626 -57.5 18.5625 C-56.48793488 18.19732269 -55.47586975 17.83214539 -54.43313599 17.4559021 C-44.49197259 13.86579762 -34.56194426 10.25744629 -24.7109375 6.42578125 C-24.02392761 6.15957474 -23.33691772 5.89336823 -22.62908936 5.61909485 C-19.53204704 4.41701504 -16.44285715 3.20087574 -13.36132812 1.95922852 C-12.31138672 1.54729248 -11.26144531 1.13535645 -10.1796875 0.7109375 C-9.29007324 0.35306152 -8.40045898 -0.00481445 -7.48388672 -0.37353516 C-4.59476965 -1.10220376 -2.83621629 -0.8423508 0 0 Z " fill="#EBEFFB" transform="translate(113,20)"/>
<path d="M0 0 C0.32027261 3.16339434 0.2109743 4.66408508 -1.50390625 7.39453125 C-2.18324219 8.19246094 -2.86257812 8.99039063 -3.5625 9.8125 C-4.28566406 10.67230469 -5.00882813 11.53210938 -5.75390625 12.41796875 C-6.49511719 13.27003906 -7.23632812 14.12210938 -8 15 C-9.03447266 16.20076172 -9.03447266 16.20076172 -10.08984375 17.42578125 C-11.71392064 19.29562846 -13.34949067 21.15349268 -15 23 C-15.60714844 22.69578125 -16.21429688 22.3915625 -16.83984375 22.078125 C-18.41022793 21.29435279 -19.98506399 20.51948098 -21.5625 19.75 C-25.28045332 17.08070018 -26.64631782 14.10149021 -27.40234375 9.609375 C-27.65519506 7.40645124 -27.85741287 5.21255891 -28 3 C-18.41076859 0.28332061 -9.88140184 -0.36901501 0 0 Z " fill="#819FE7" transform="translate(28,85)"/>
<path d="M0 0 C0.33 0 0.66 0 1 0 C1 5.28 1 10.56 1 16 C0.34 16 -0.32 16 -1 16 C-1.33 12.7 -1.66 9.4 -2 6 C-2.99 6.495 -2.99 6.495 -4 7 C-2.92598892 4.08482708 -2.22189824 2.22189824 0 0 Z " fill="#E8EBF2" transform="translate(115,37)"/>
<path d="M0 0 C0.66 0.33 1.32 0.66 2 1 C0.63835184 6.14400416 -2.6884072 9.1256048 -7 12 C-9.2265625 12.671875 -9.2265625 12.671875 -11 13 C-9.58585553 9.46463882 -8.34646716 8.62252953 -5 7 C-3.34329588 5.09663191 -3.34329588 5.09663191 -2 3 C-1.34 2.01 -0.68 1.02 0 0 Z " fill="#4D608B" transform="translate(28,17)"/>
<path d="M0 0 C1.75 1.4375 1.75 1.4375 3 3 C0.69 3.66 -1.62 4.32 -4 5 C-4 3.68 -4 2.36 -4 1 C-2.1875 0.3125 -2.1875 0.3125 0 0 Z " fill="#E8ECF6" transform="translate(7,56)"/>
<path d="M0 0 C0.66 0.66 1.32 1.32 2 2 C1.34 2 0.68 2 0 2 C0 1.34 0 0.68 0 0 Z " fill="#000000" transform="translate(9,107)"/>
<path d="M0 0 C2 1 2 1 2 1 Z " fill="#000000" transform="translate(20,115)"/>
<path d="M0 0 C2 1 2 1 2 1 Z " fill="#000000" transform="translate(16,113)"/>
<path d="M0 0 C2 1 2 1 2 1 Z " fill="#000000" transform="translate(94,110)"/>
<path d="" fill="#000000" transform="translate(0,0)"/>
<path d="" fill="#000000" transform="translate(0,0)"/>
<path d="" fill="#000000" transform="translate(0,0)"/>
<path d="M0 0 C2 1 2 1 2 1 Z " fill="#000000" transform="translate(99,4)"/>
<path d="" fill="#000000" transform="translate(0,0)"/>
<path d="" fill="#000000" transform="translate(0,0)"/>
<path d="" fill="#000000" transform="translate(0,0)"/>
<path d="" fill="#000000" transform="translate(0,0)"/>
<path d="" fill="#000000" transform="translate(0,0)"/>
<path d="" fill="#000000" transform="translate(0,0)"/>
<path d="" fill="#000000" transform="translate(0,0)"/>
<path d="" fill="#000000" transform="translate(0,0)"/>
<path d="" fill="#000000" transform="translate(0,0)"/>
<path d="" fill="#000000" transform="translate(0,0)"/>
<path d="" fill="#000000" transform="translate(0,0)"/>
<path d="" fill="#000000" transform="translate(0,0)"/>
<path d="" fill="#000000" transform="translate(0,0)"/>
<path d="" fill="#000000" transform="translate(0,0)"/>
<path d="" fill="#000000" transform="translate(0,0)"/>
<path d="" fill="#000000" transform="translate(0,0)"/>
<path d="" fill="#000000" transform="translate(0,0)"/>
<path d="" fill="#000000" transform="translate(0,0)"/>
<path d="" fill="#000000" transform="translate(0,0)"/>
<path d="" fill="#000000" transform="translate(0,0)"/>
<path d="" fill="#000000" transform="translate(0,0)"/>
<path d="" fill="#000000" transform="translate(0,0)"/>
<path d="" fill="#000000" transform="translate(0,0)"/>
<path d="" fill="#000000" transform="translate(0,0)"/>
<path d="" fill="#000000" transform="translate(0,0)"/>
<path d="" fill="#000000" transform="translate(0,0)"/>
<path d="" fill="#000000" transform="translate(0,0)"/>
<path d="" fill="#000000" transform="translate(0,0)"/>
<path d="" fill="#000000" transform="translate(0,0)"/>
<path d="" fill="#000000" transform="translate(0,0)"/>
<path d="" fill="#000000" transform="translate(0,0)"/>
<path d="" fill="#000000" transform="translate(0,0)"/>
<path d="" fill="#000000" transform="translate(0,0)"/>
<path d="" fill="#000000" transform="translate(0,0)"/>
<path d="" fill="#000000" transform="translate(0,0)"/>
<path d="" fill="#000000" transform="translate(0,0)"/>
<path d="" fill="#000000" transform="translate(0,0)"/>
<path d="" fill="#000000" transform="translate(0,0)"/>
<path d="" fill="#000000" transform="translate(0,0)"/>
<path d="" fill="#000000" transform="translate(0,0)"/>
<path d="" fill="#000000" transform="translate(0,0)"/>
<path d="" fill="#000000" transform="translate(0,0)"/>
<path d="" fill="#000000" transform="translate(0,0)"/>
<path d="" fill="#000000" transform="translate(0,0)"/>
<path d="" fill="#000000" transform="translate(0,0)"/>
<path d="" fill="#000000" transform="translate(0,0)"/>
</svg>
